<svg xmlns="http://www.w3.org/2000/svg" xmlns:svg="http://www.w3.org/2000/svg" id="svg10" width="380.001" height="420" version="1.1" viewBox="0 0 38 42"><metadata id="metadata16"/><path id="path2" fill="#283593" fill-rule="evenodd" d="m 17.903,0.28628166 c 0.679,-0.381 1.515,-0.381 2.193,0 C 23.451,2.1692817 33.547,7.8372817 36.903,9.7202817 37.582,10.100282 38,10.804282 38,11.566282 c 0,3.766 0,15.101 0,18.867 0,0.762 -0.418,1.466 -1.097,1.847 -3.355,1.883 -13.451,7.551 -16.807,9.434 -0.679,0.381 -1.515,0.381 -2.193,0 -3.355,-1.883 -13.451,-7.551 -16.807,-9.434 -0.678,-0.381 -1.096,-1.084 -1.096,-1.846 0,-3.766 0,-15.101 0,-18.867 0,-0.762 0.418,-1.466 1.097,-1.8470003 3.354,-1.883 13.452,-7.551 16.806,-9.43400004 z" clip-rule="evenodd" style="fill:#868782;fill-opacity:1"/></svg>